<svg width="94" height="58" viewBox="0 0 94 58" fill="none" xmlns="http://www.w3.org/2000/svg">
<g filter="url(#filter0_d_1413_2962)">
<path d="M6.39048 4.82166L5 4L5.30501 5.58604L8.94576 24.5179L9.30539 26.3881L10.2852 24.755L14.5036 17.7244L22.231 15.617L23.8926 15.1638L22.4098 14.2875L6.39048 4.82166Z" fill="#1BC47D"/>
<path d="M6.39048 4.82166L5 4L5.30501 5.58604L8.94576 24.5179L9.30539 26.3881L10.2852 24.755L14.5036 17.7244L22.231 15.617L23.8926 15.1638L22.4098 14.2875L6.39048 4.82166Z" stroke="white" stroke-linecap="square"/>
</g>
<g filter="url(#filter1_d_1413_2962)">
<rect x="29" y="28" width="61" height="25" rx="2" fill="#1BC47D"/>
</g>
<path d="M44.4212 35.2707C43.5738 35.2707 42.8458 35.4663 42.2374 35.8574C41.6289 36.2485 41.1617 36.7918 40.8358 37.4872C40.5098 38.1825 40.3468 38.9974 40.3468 39.9318C40.3468 40.877 40.5152 41.6865 40.8521 42.3601C41.1997 43.0337 41.6832 43.5498 42.3025 43.9084C42.9218 44.2561 43.6335 44.4299 44.4375 44.4299C44.9482 44.4299 45.4208 44.3647 45.8554 44.2343C46.29 44.104 46.6703 43.9029 46.9962 43.6313C47.3222 43.3488 47.5775 42.9903 47.7622 42.5557C47.9578 42.1211 48.0556 41.6104 48.0556 41.0237V39.9155L48.8053 40.6815H44.1116V39.2636H49.5549V45.7663H48.2185L48.0556 43.5824L48.2674 43.8432C48.0936 44.2343 47.8165 44.5874 47.4363 44.9025C47.056 45.2176 46.5997 45.4729 46.0673 45.6685C45.5349 45.8532 44.9482 45.9456 44.3071 45.9456C43.1989 45.9456 42.2211 45.6957 41.3736 45.1959C40.5261 44.6852 39.8633 43.979 39.3853 43.0772C38.9072 42.1754 38.6682 41.1161 38.6682 39.8992C38.6682 38.704 38.9072 37.6447 39.3853 36.7212C39.8742 35.7977 40.5533 35.0751 41.4225 34.5536C42.2917 34.0321 43.3021 33.7713 44.4538 33.7713C45.3122 33.7713 46.0944 33.9289 46.8007 34.244C47.5069 34.5482 48.0882 34.9828 48.5445 35.5478C49.0117 36.1019 49.305 36.7592 49.4246 37.5198H47.7296C47.5123 36.7701 47.0994 36.2105 46.491 35.8411C45.8934 35.4608 45.2035 35.2707 44.4212 35.2707ZM57.0787 37.7805H58.5943V45.75H57.2253L57.0624 44.544C56.8342 44.9569 56.4757 45.2937 55.9867 45.5544C55.4978 45.8152 54.96 45.9456 54.3733 45.9456C53.4497 45.9456 52.7327 45.6576 52.222 45.0818C51.7222 44.4951 51.4723 43.7128 51.4723 42.735V37.7805H53.0043V42.2297C53.0043 43.0772 53.1727 43.6856 53.5095 44.0551C53.8572 44.4136 54.3244 44.5929 54.9111 44.5929C55.6173 44.5929 56.1551 44.3756 56.5245 43.941C56.894 43.4955 57.0787 42.8436 57.0787 41.9853V37.7805ZM64.0966 45.9456C63.3252 45.9456 62.6407 45.7717 62.0432 45.424C61.4456 45.0655 60.9784 44.5766 60.6416 43.9573C60.3048 43.3271 60.1364 42.5991 60.1364 41.7734C60.1364 40.9368 60.2993 40.2034 60.6253 39.5732C60.9621 38.9431 61.4184 38.4487 61.9943 38.0902C62.581 37.7316 63.26 37.5524 64.0315 37.5524C64.792 37.5524 65.4493 37.7153 66.0035 38.0413C66.5684 38.3672 67.003 38.8236 67.3073 39.4103C67.6223 39.997 67.7799 40.6869 67.7799 41.4801V42.0505L60.9512 42.0668L60.9838 41.04H66.2479C66.2479 40.3773 66.0469 39.8449 65.6449 39.4429C65.2429 39.0409 64.7051 38.8399 64.0315 38.8399C63.5208 38.8399 63.0808 38.9539 62.7114 39.1821C62.3528 39.3994 62.0758 39.7254 61.8802 40.16C61.6955 40.5837 61.6031 41.0943 61.6031 41.6919C61.6031 42.648 61.8204 43.3869 62.255 43.9084C62.6896 44.419 63.3144 44.6744 64.1292 44.6744C64.7268 44.6744 65.2157 44.5548 65.596 44.3158C65.9763 44.0768 66.2316 43.7291 66.362 43.2728H67.7962C67.6006 44.1202 67.1823 44.7776 66.5413 45.2448C65.9002 45.712 65.0854 45.9456 64.0966 45.9456ZM68.8391 43.4358H70.3059C70.3059 43.8378 70.4526 44.1583 70.7459 44.3973C71.0393 44.6255 71.4358 44.7396 71.9356 44.7396C72.4789 44.7396 72.8972 44.6363 73.1905 44.4299C73.4839 44.2126 73.6306 43.9247 73.6306 43.5661C73.6306 43.3054 73.5491 43.0881 73.3861 42.9142C73.234 42.7404 72.9515 42.5991 72.5386 42.4905L71.137 42.1645C70.4308 41.9907 69.9039 41.7245 69.5562 41.366C69.2194 41.0074 69.051 40.5348 69.051 39.9481C69.051 39.4592 69.1759 39.0354 69.4258 38.6769C69.6866 38.3183 70.0397 38.0413 70.4851 37.8457C70.9415 37.6501 71.463 37.5524 72.0497 37.5524C72.6364 37.5524 73.1416 37.6556 73.5654 37.862C74 38.0684 74.3368 38.3564 74.5758 38.7258C74.8257 39.0952 74.9561 39.5352 74.967 40.0459H73.5002C73.4893 39.633 73.3535 39.3125 73.0927 39.0843C72.832 38.8562 72.468 38.7421 72.0008 38.7421C71.5228 38.7421 71.1533 38.8453 70.8926 39.0517C70.6318 39.2582 70.5014 39.5406 70.5014 39.8992C70.5014 40.4316 70.8926 40.7956 71.6749 40.9911L73.0765 41.3334C73.7501 41.4855 74.2553 41.7354 74.5921 42.0831C74.9289 42.4199 75.0973 42.8816 75.0973 43.4683C75.0973 43.9681 74.9615 44.4082 74.6899 44.7884C74.4183 45.1579 74.0434 45.4458 73.5654 45.6522C73.0982 45.8478 72.5441 45.9456 71.903 45.9456C70.9686 45.9456 70.2244 45.7174 69.6703 45.2611C69.1162 44.8047 68.8391 44.1963 68.8391 43.4358ZM75.9488 37.7805H80.6098V39.068H75.9488V37.7805ZM79.0453 45.75H77.5133V35.287H79.0453V45.75Z" fill="white"/>
<defs>
<filter id="filter0_d_1413_2962" x="0.299561" y="0.00488281" width="28.8656" height="32.7617" filterUnits="userSpaceOnUse" color-interpolation-filters="sRGB">
<feFlood flood-opacity="0" result="BackgroundImageFix"/>
<feColorMatrix in="SourceAlpha" type="matrix" values="0 0 0 0 0 0 0 0 0 0 0 0 0 0 0 0 0 0 127 0" result="hardAlpha"/>
<feOffset dy="1"/>
<feGaussianBlur stdDeviation="2"/>
<feComposite in2="hardAlpha" operator="out"/>
<feColorMatrix type="matrix" values="0 0 0 0 0 0 0 0 0 0 0 0 0 0 0 0 0 0 0.1 0"/>
<feBlend mode="normal" in2="BackgroundImageFix" result="effect1_dropShadow_1413_2962"/>
<feBlend mode="normal" in="SourceGraphic" in2="effect1_dropShadow_1413_2962" result="shape"/>
</filter>
<filter id="filter1_d_1413_2962" x="25" y="25" width="69" height="33" filterUnits="userSpaceOnUse" color-interpolation-filters="sRGB">
<feFlood flood-opacity="0" result="BackgroundImageFix"/>
<feColorMatrix in="SourceAlpha" type="matrix" values="0 0 0 0 0 0 0 0 0 0 0 0 0 0 0 0 0 0 127 0" result="hardAlpha"/>
<feOffset dy="1"/>
<feGaussianBlur stdDeviation="2"/>
<feComposite in2="hardAlpha" operator="out"/>
<feColorMatrix type="matrix" values="0 0 0 0 0 0 0 0 0 0 0 0 0 0 0 0 0 0 0.16 0"/>
<feBlend mode="normal" in2="BackgroundImageFix" result="effect1_dropShadow_1413_2962"/>
<feBlend mode="normal" in="SourceGraphic" in2="effect1_dropShadow_1413_2962" result="shape"/>
</filter>
</defs>
</svg>
