<svg width="97" height="59" viewBox="0 0 97 59" fill="none" xmlns="http://www.w3.org/2000/svg">
<g filter="url(#filter0_d_1977_1053)">
<path d="M6.12973 4.85779L4.73926 4.03613L5.04426 5.62217L8.68501 24.554L9.04465 26.4242L10.0244 24.7911L14.2428 17.7605L21.9703 15.6531L23.6319 15.1999L22.1491 14.3237L6.12973 4.85779Z" fill="#EF5533"/>
<path d="M6.12973 4.85779L4.73926 4.03613L5.04426 5.62217L8.68501 24.554L9.04465 26.4242L10.0244 24.7911L14.2428 17.7605L21.9703 15.6531L23.6319 15.1999L22.1491 14.3237L6.12973 4.85779Z" stroke="white" stroke-linecap="square"/>
</g>
<g filter="url(#filter1_d_1977_1053)">
<rect x="28.7393" y="28.0361" width="63.9951" height="25" rx="2" fill="#EF5533"/>
</g>
<path d="M48.2342 39.8864C48.2342 41.0816 47.9898 42.1409 47.5008 43.0644C47.0228 43.9771 46.3546 44.6942 45.4962 45.2157C44.6488 45.7264 43.6655 45.9817 42.5464 45.9817C41.449 45.9817 40.4712 45.7264 39.6128 45.2157C38.7654 44.6942 38.1026 43.9771 37.6245 43.0644C37.1465 42.1518 36.9075 41.0924 36.9075 39.8864C36.9075 38.6913 37.1465 37.6374 37.6245 36.7247C38.1135 35.8121 38.7817 35.095 39.6291 34.5734C40.4766 34.0519 41.4545 33.7912 42.5627 33.7912C43.6818 33.7912 44.6651 34.0519 45.5125 34.5734C46.36 35.095 47.0228 35.8121 47.5008 36.7247C47.9898 37.6374 48.2342 38.6913 48.2342 39.8864ZM46.5556 39.8864C46.5556 38.9738 46.3872 38.1752 46.0504 37.4907C45.7244 36.8062 45.2626 36.2792 44.6651 35.9098C44.0675 35.5296 43.3667 35.3394 42.5627 35.3394C41.7695 35.3394 41.0742 35.5296 40.4766 35.9098C39.879 36.2792 39.4118 36.8062 39.075 37.4907C38.7491 38.1752 38.5861 38.9738 38.5861 39.8864C38.5861 40.7991 38.7491 41.5977 39.075 42.2822C39.4118 42.9667 39.879 43.499 40.4766 43.8793C41.0742 44.2596 41.7695 44.4497 42.5627 44.4497C43.3667 44.4497 44.0675 44.2596 44.6651 43.8793C45.2626 43.4882 45.7244 42.9504 46.0504 42.2659C46.3872 41.5814 46.5556 40.7882 46.5556 39.8864ZM49.1688 37.8166H54.4981V39.1042H49.1688V37.8166ZM53.7973 33.8564V35.1765C53.7104 35.1765 53.6071 35.1765 53.4876 35.1765C53.3681 35.1765 53.2432 35.1765 53.1128 35.1765C52.6239 35.1765 52.2925 35.296 52.1186 35.535C51.9557 35.774 51.8742 36.1108 51.8742 36.5454V45.7861H50.3422V36.5454C50.3422 35.8935 50.4509 35.3666 50.6682 34.9646C50.8855 34.5517 51.1842 34.2529 51.5645 34.0682C51.9448 33.8835 52.3794 33.7912 52.8683 33.7912C53.0096 33.7912 53.1617 33.7966 53.3247 33.8075C53.4985 33.8183 53.656 33.8346 53.7973 33.8564ZM54.2699 37.8166H60.7563V39.1042H54.2699V37.8166ZM58.8658 33.8564V35.1765C58.768 35.1765 58.6594 35.1765 58.5399 35.1765C58.4312 35.1765 58.3117 35.1765 58.1813 35.1765C57.6815 35.1765 57.3447 35.296 57.1709 35.535C57.0079 35.774 56.9264 36.1108 56.9264 36.5454V45.7861H55.4107V36.5454C55.4107 35.8935 55.5194 35.3666 55.7367 34.9646C55.954 34.5517 56.2528 34.2529 56.6331 34.0682C57.0133 33.8835 57.4425 33.7912 57.9206 33.7912C58.0727 33.7912 58.2302 33.7966 58.3932 33.8075C58.5562 33.8183 58.7137 33.8346 58.8658 33.8564ZM61.8646 45.7861H60.3326V33.7912H61.8646V45.7861ZM64.1174 45.7861V37.8166H65.6494V45.7861H64.1174ZM64.8671 35.9261C64.5955 35.9261 64.3565 35.8284 64.15 35.6328C63.9545 35.4263 63.8567 35.1873 63.8567 34.9157C63.8567 34.6332 63.9545 34.3942 64.15 34.1986C64.3565 34.003 64.5955 33.9052 64.8671 33.9052C65.1496 33.9052 65.3886 34.003 65.5842 34.1986C65.7798 34.3942 65.8776 34.6332 65.8776 34.9157C65.8776 35.1873 65.7798 35.4263 65.5842 35.6328C65.3886 35.8284 65.1496 35.9261 64.8671 35.9261ZM69.4055 45.7861H67.8735V37.8166H69.2588L69.4218 39.039C69.6717 38.5826 70.0302 38.2295 70.4974 37.9796C70.9755 37.7189 71.497 37.5885 72.062 37.5885C73.105 37.5885 73.8764 37.8873 74.3762 38.4848C74.876 39.0824 75.1259 39.8919 75.1259 40.9132V45.7861H73.5939V41.2554C73.5939 40.4514 73.4201 39.8756 73.0724 39.5279C72.7247 39.1693 72.2575 38.9901 71.6708 38.9901C70.9537 38.9901 70.3942 39.2237 69.9922 39.6909C69.601 40.1581 69.4055 40.7828 69.4055 41.5651V45.7861ZM80.6865 45.9817C79.9151 45.9817 79.2306 45.8079 78.633 45.4602C78.0355 45.1016 77.5683 44.6127 77.2315 43.9934C76.8946 43.3632 76.7262 42.6353 76.7262 41.8095C76.7262 40.9729 76.8892 40.2395 77.2152 39.6094C77.552 38.9792 78.0083 38.4848 78.5841 38.1263C79.1709 37.7678 79.8499 37.5885 80.6213 37.5885C81.3819 37.5885 82.0392 37.7515 82.5933 38.0774C83.1583 38.4034 83.5929 38.8597 83.8971 39.4464C84.2122 40.0331 84.3698 40.723 84.3698 41.5162V42.0866L77.5411 42.1029L77.5737 41.0762H82.8378C82.8378 40.4134 82.6368 39.881 82.2348 39.479C81.8328 39.077 81.295 38.876 80.6213 38.876C80.1107 38.876 79.6706 38.9901 79.3012 39.2182C78.9427 39.4355 78.6656 39.7615 78.4701 40.1961C78.2854 40.6198 78.193 41.1305 78.193 41.7281C78.193 42.6842 78.4103 43.423 78.8449 43.9445C79.2795 44.4552 79.9042 44.7105 80.7191 44.7105C81.3167 44.7105 81.8056 44.591 82.1859 44.352C82.5662 44.1129 82.8215 43.7652 82.9519 43.3089H84.3861C84.1905 44.1564 83.7722 44.8137 83.1312 45.2809C82.4901 45.7481 81.6752 45.9817 80.6865 45.9817Z" fill="white"/>
<defs>
<filter id="filter0_d_1977_1053" x="0.0385742" y="0.0410156" width="28.8657" height="32.7617" filterUnits="userSpaceOnUse" color-interpolation-filters="sRGB">
<feFlood flood-opacity="0" result="BackgroundImageFix"/>
<feColorMatrix in="SourceAlpha" type="matrix" values="0 0 0 0 0 0 0 0 0 0 0 0 0 0 0 0 0 0 127 0" result="hardAlpha"/>
<feOffset dy="1"/>
<feGaussianBlur stdDeviation="2"/>
<feComposite in2="hardAlpha" operator="out"/>
<feColorMatrix type="matrix" values="0 0 0 0 0 0 0 0 0 0 0 0 0 0 0 0 0 0 0.1 0"/>
<feBlend mode="normal" in2="BackgroundImageFix" result="effect1_dropShadow_1977_1053"/>
<feBlend mode="normal" in="SourceGraphic" in2="effect1_dropShadow_1977_1053" result="shape"/>
</filter>
<filter id="filter1_d_1977_1053" x="24.7393" y="25.0361" width="71.9951" height="33" filterUnits="userSpaceOnUse" color-interpolation-filters="sRGB">
<feFlood flood-opacity="0" result="BackgroundImageFix"/>
<feColorMatrix in="SourceAlpha" type="matrix" values="0 0 0 0 0 0 0 0 0 0 0 0 0 0 0 0 0 0 127 0" result="hardAlpha"/>
<feOffset dy="1"/>
<feGaussianBlur stdDeviation="2"/>
<feComposite in2="hardAlpha" operator="out"/>
<feColorMatrix type="matrix" values="0 0 0 0 0 0 0 0 0 0 0 0 0 0 0 0 0 0 0.16 0"/>
<feBlend mode="normal" in2="BackgroundImageFix" result="effect1_dropShadow_1977_1053"/>
<feBlend mode="normal" in="SourceGraphic" in2="effect1_dropShadow_1977_1053" result="shape"/>
</filter>
</defs>
</svg>
