<svg width="100" height="59" viewBox="0 0 100 59" fill="none" xmlns="http://www.w3.org/2000/svg">
<g filter="url(#filter0_d_1977_1058)">
<path d="M6.88462 5.60779L5.49414 4.78613L5.79915 6.37217L9.4399 25.304L9.79953 27.1742L10.7793 25.5411L14.9977 18.5105L22.7251 16.4031L24.3868 15.9499L22.904 15.0737L6.88462 5.60779Z" fill="#1BC47D"/>
<path d="M6.88462 5.60779L5.49414 4.78613L5.79915 6.37217L9.4399 25.304L9.79953 27.1742L10.7793 25.5411L14.9977 18.5105L22.7251 16.4031L24.3868 15.9499L22.904 15.0737L6.88462 5.60779Z" stroke="white" stroke-linecap="square"/>
</g>
<g filter="url(#filter1_d_1977_1058)">
<rect x="29.4941" y="28.7861" width="65.5322" height="25" rx="2" fill="#1BC47D"/>
</g>
<path d="M50.4891 40.6364C50.4891 41.8316 50.2446 42.8909 49.7557 43.8144C49.2777 44.7271 48.6095 45.4442 47.7511 45.9657C46.9037 46.4764 45.9204 46.7317 44.8013 46.7317C43.7039 46.7317 42.7261 46.4764 41.8677 45.9657C41.0203 45.4442 40.3575 44.7271 39.8794 43.8144C39.4014 42.9018 39.1623 41.8424 39.1623 40.6364C39.1623 39.4413 39.4014 38.3874 39.8794 37.4747C40.3684 36.5621 41.0366 35.845 41.884 35.3234C42.7315 34.8019 43.7093 34.5412 44.8176 34.5412C45.9367 34.5412 46.92 34.8019 47.7674 35.3234C48.6149 35.845 49.2777 36.5621 49.7557 37.4747C50.2446 38.3874 50.4891 39.4413 50.4891 40.6364ZM48.8105 40.6364C48.8105 39.7238 48.6421 38.9252 48.3052 38.2407C47.9793 37.5562 47.5175 37.0292 46.92 36.6598C46.3224 36.2796 45.6216 36.0894 44.8176 36.0894C44.0244 36.0894 43.3291 36.2796 42.7315 36.6598C42.1339 37.0292 41.6667 37.5562 41.3299 38.2407C41.004 38.9252 40.841 39.7238 40.841 40.6364C40.841 41.5491 41.004 42.3477 41.3299 43.0322C41.6667 43.7167 42.1339 44.249 42.7315 44.6293C43.3291 45.0096 44.0244 45.1997 44.8176 45.1997C45.6216 45.1997 46.3224 45.0096 46.92 44.6293C47.5175 44.2382 47.9793 43.7004 48.3052 43.0159C48.6421 42.3314 48.8105 41.5382 48.8105 40.6364ZM53.8031 46.5361H52.2711V38.5666H53.6564L53.8194 39.789C54.0693 39.3326 54.4278 38.9795 54.895 38.7296C55.3731 38.4689 55.8946 38.3385 56.4596 38.3385C57.5026 38.3385 58.2741 38.6373 58.7739 39.2348C59.2736 39.8324 59.5235 40.6419 59.5235 41.6632V46.5361H57.9916V42.0054C57.9916 41.2014 57.8177 40.6256 57.47 40.2779C57.1224 39.9193 56.6552 39.7401 56.0685 39.7401C55.3514 39.7401 54.7918 39.9737 54.3898 40.4409C53.9987 40.9081 53.8031 41.5328 53.8031 42.3151V46.5361ZM63.21 46.5361H61.678V34.5412H63.21V46.5361ZM65.4651 46.5361V38.5666H66.9971V46.5361H65.4651ZM66.2148 36.6761C65.9432 36.6761 65.7042 36.5784 65.4977 36.3828C65.3022 36.1763 65.2044 35.9373 65.2044 35.6657C65.2044 35.3832 65.3022 35.1442 65.4977 34.9486C65.7042 34.753 65.9432 34.6552 66.2148 34.6552C66.4973 34.6552 66.7363 34.753 66.9319 34.9486C67.1275 35.1442 67.2253 35.3832 67.2253 35.6657C67.2253 35.9373 67.1275 36.1763 66.9319 36.3828C66.7363 36.5784 66.4973 36.6761 66.2148 36.6761ZM70.7532 46.5361H69.2212V38.5666H70.6065L70.7695 39.789C71.0194 39.3326 71.3779 38.9795 71.8451 38.7296C72.3232 38.4689 72.8447 38.3385 73.4097 38.3385C74.4527 38.3385 75.2241 38.6373 75.7239 39.2348C76.2237 39.8324 76.4736 40.6419 76.4736 41.6632V46.5361H74.9416V42.0054C74.9416 41.2014 74.7678 40.6256 74.4201 40.2779C74.0724 39.9193 73.6052 39.7401 73.0185 39.7401C72.3014 39.7401 71.7419 39.9737 71.3399 40.4409C70.9487 40.9081 70.7532 41.5328 70.7532 42.3151V46.5361ZM82.0342 46.7317C81.2628 46.7317 80.5783 46.5579 79.9807 46.2102C79.3832 45.8516 78.916 45.3627 78.5792 44.7434C78.2423 44.1132 78.0739 43.3853 78.0739 42.5595C78.0739 41.7229 78.2369 40.9895 78.5629 40.3594C78.8997 39.7292 79.356 39.2348 79.9318 38.8763C80.5186 38.5178 81.1976 38.3385 81.969 38.3385C82.7296 38.3385 83.3869 38.5015 83.941 38.8274C84.506 39.1534 84.9406 39.6097 85.2448 40.1964C85.5599 40.7831 85.7175 41.473 85.7175 42.2662V42.8366L78.8888 42.8529L78.9214 41.8262H84.1855C84.1855 41.1634 83.9845 40.631 83.5825 40.229C83.1805 39.827 82.6427 39.626 81.969 39.626C81.4584 39.626 81.0183 39.7401 80.6489 39.9682C80.2904 40.1855 80.0133 40.5115 79.8178 40.9461C79.6331 41.3698 79.5407 41.8805 79.5407 42.4781C79.5407 43.4342 79.758 44.173 80.1926 44.6945C80.6272 45.2052 81.2519 45.4605 82.0668 45.4605C82.6644 45.4605 83.1533 45.341 83.5336 45.102C83.9139 44.8629 84.1692 44.5152 84.2996 44.0589H85.7338C85.5382 44.9064 85.1199 45.5637 84.4789 46.0309C83.8378 46.4981 83.0229 46.7317 82.0342 46.7317Z" fill="white"/>
<defs>
<filter id="filter0_d_1977_1058" x="0.793457" y="0.791016" width="28.8657" height="32.7617" filterUnits="userSpaceOnUse" color-interpolation-filters="sRGB">
<feFlood flood-opacity="0" result="BackgroundImageFix"/>
<feColorMatrix in="SourceAlpha" type="matrix" values="0 0 0 0 0 0 0 0 0 0 0 0 0 0 0 0 0 0 127 0" result="hardAlpha"/>
<feOffset dy="1"/>
<feGaussianBlur stdDeviation="2"/>
<feComposite in2="hardAlpha" operator="out"/>
<feColorMatrix type="matrix" values="0 0 0 0 0 0 0 0 0 0 0 0 0 0 0 0 0 0 0.1 0"/>
<feBlend mode="normal" in2="BackgroundImageFix" result="effect1_dropShadow_1977_1058"/>
<feBlend mode="normal" in="SourceGraphic" in2="effect1_dropShadow_1977_1058" result="shape"/>
</filter>
<filter id="filter1_d_1977_1058" x="25.4941" y="25.7861" width="73.5322" height="33" filterUnits="userSpaceOnUse" color-interpolation-filters="sRGB">
<feFlood flood-opacity="0" result="BackgroundImageFix"/>
<feColorMatrix in="SourceAlpha" type="matrix" values="0 0 0 0 0 0 0 0 0 0 0 0 0 0 0 0 0 0 127 0" result="hardAlpha"/>
<feOffset dy="1"/>
<feGaussianBlur stdDeviation="2"/>
<feComposite in2="hardAlpha" operator="out"/>
<feColorMatrix type="matrix" values="0 0 0 0 0 0 0 0 0 0 0 0 0 0 0 0 0 0 0.16 0"/>
<feBlend mode="normal" in2="BackgroundImageFix" result="effect1_dropShadow_1977_1058"/>
<feBlend mode="normal" in="SourceGraphic" in2="effect1_dropShadow_1977_1058" result="shape"/>
</filter>
</defs>
</svg>
