<svg width="94" height="58" viewBox="0 0 94 58" fill="none" xmlns="http://www.w3.org/2000/svg">
<g filter="url(#filter0_d_1418_3077)">
<path d="M6.39048 4.82166L5 4L5.30501 5.58604L8.94576 24.5179L9.30539 26.3881L10.2852 24.755L14.5036 17.7244L22.231 15.617L23.8926 15.1638L22.4098 14.2875L6.39048 4.82166Z" fill="#FFC700"/>
<path d="M6.39048 4.82166L5 4L5.30501 5.58604L8.94576 24.5179L9.30539 26.3881L10.2852 24.755L14.5036 17.7244L22.231 15.617L23.8926 15.1638L22.4098 14.2875L6.39048 4.82166Z" stroke="white" stroke-linecap="square"/>
</g>
<g filter="url(#filter1_d_1418_3077)">
<rect x="29" y="28" width="61" height="25" rx="2" fill="#FFC700"/>
</g>
<path d="M41.6845 37.1449C41.6845 36.4713 41.8529 35.8791 42.1897 35.3685C42.5265 34.8578 42.9992 34.4613 43.6076 34.1788C44.2269 33.8963 44.9386 33.755 45.7426 33.755C46.4923 33.755 47.1442 33.8908 47.6983 34.1625C48.2633 34.4232 48.7033 34.7981 49.0184 35.287C49.3443 35.7759 49.529 36.3626 49.5725 37.0471H47.959C47.9156 36.4604 47.6983 36.0041 47.3071 35.6781C46.916 35.3522 46.389 35.1892 45.7263 35.1892C44.9875 35.1892 44.3953 35.3631 43.9499 35.7107C43.5044 36.0475 43.2817 36.5093 43.2817 37.096C43.2817 37.5741 43.4175 37.9598 43.6891 38.2531C43.9607 38.5356 44.3736 38.7421 44.9277 38.8724L46.8671 39.3288C47.8341 39.5461 48.5566 39.9209 49.0347 40.4533C49.5236 40.9748 49.7681 41.6485 49.7681 42.4742C49.7681 43.1804 49.5942 43.7943 49.2465 44.3158C48.9097 44.8373 48.4262 45.2393 47.7961 45.5218C47.1768 45.8043 46.4488 45.9456 45.6122 45.9456C44.8191 45.9456 44.1183 45.8152 43.5098 45.5544C42.9122 45.2828 42.4396 44.9025 42.0919 44.4136C41.7551 43.9138 41.565 43.3325 41.5215 42.6698H43.1513C43.1621 43.2348 43.3903 43.6856 43.8358 44.0225C44.2812 44.3484 44.8734 44.5114 45.6122 44.5114C46.3945 44.5114 47.0138 44.3375 47.4701 43.9899C47.9373 43.6422 48.1709 43.1804 48.1709 42.6046C48.1709 42.1374 48.0405 41.7571 47.7798 41.4638C47.519 41.1704 47.1061 40.9585 46.5412 40.8282L44.6018 40.3881C43.6456 40.1708 42.9177 39.7905 42.4179 39.2473C41.929 38.6932 41.6845 37.9924 41.6845 37.1449ZM50.9928 41.7571C50.9928 40.9422 51.1721 40.2197 51.5306 39.5895C51.8892 38.9594 52.3781 38.465 52.9974 38.1065C53.6276 37.7479 54.3447 37.5686 55.1487 37.5686C55.9527 37.5686 56.6643 37.7479 57.2836 38.1065C57.9029 38.465 58.3919 38.9594 58.7504 39.5895C59.109 40.2197 59.2882 40.9422 59.2882 41.7571C59.2882 42.572 59.109 43.2945 58.7504 43.9247C58.3919 44.5548 57.9029 45.0492 57.2836 45.4078C56.6643 45.7663 55.9527 45.9456 55.1487 45.9456C54.3447 45.9456 53.6276 45.7663 52.9974 45.4078C52.3781 45.0492 51.8892 44.5548 51.5306 43.9247C51.1721 43.2945 50.9928 42.572 50.9928 41.7571ZM52.5411 41.7571C52.5411 42.3112 52.6497 42.8001 52.867 43.2239C53.0952 43.6476 53.4048 43.979 53.796 44.218C54.1871 44.4571 54.638 44.5766 55.1487 44.5766C55.6593 44.5766 56.1102 44.4571 56.5014 44.218C56.8925 43.979 57.1967 43.6476 57.414 43.2239C57.6422 42.8001 57.7563 42.3112 57.7563 41.7571C57.7563 41.1921 57.6422 40.7032 57.414 40.2903C57.1967 39.8666 56.8925 39.5352 56.5014 39.2962C56.1102 39.0572 55.6593 38.9376 55.1487 38.9376C54.638 38.9376 54.1871 39.0572 53.796 39.2962C53.4048 39.5352 53.0952 39.8666 52.867 40.2903C52.6497 40.7032 52.5411 41.1921 52.5411 41.7571ZM60.4625 41.7571C60.4625 40.9422 60.6418 40.2197 61.0004 39.5895C61.3589 38.9594 61.8478 38.465 62.4671 38.1065C63.0973 37.7479 63.8144 37.5686 64.6184 37.5686C65.4224 37.5686 66.1341 37.7479 66.7534 38.1065C67.3727 38.465 67.8616 38.9594 68.2202 39.5895C68.5787 40.2197 68.758 40.9422 68.758 41.7571C68.758 42.572 68.5787 43.2945 68.2202 43.9247C67.8616 44.5548 67.3727 45.0492 66.7534 45.4078C66.1341 45.7663 65.4224 45.9456 64.6184 45.9456C63.8144 45.9456 63.0973 45.7663 62.4671 45.4078C61.8478 45.0492 61.3589 44.5548 61.0004 43.9247C60.6418 43.2945 60.4625 42.572 60.4625 41.7571ZM62.0108 41.7571C62.0108 42.3112 62.1195 42.8001 62.3368 43.2239C62.5649 43.6476 62.8746 43.979 63.2657 44.218C63.6569 44.4571 64.1078 44.5766 64.6184 44.5766C65.1291 44.5766 65.58 44.4571 65.9711 44.218C66.3622 43.979 66.6665 43.6476 66.8838 43.2239C67.1119 42.8001 67.226 42.3112 67.226 41.7571C67.226 41.1921 67.1119 40.7032 66.8838 40.2903C66.6665 39.8666 66.3622 39.5352 65.9711 39.2962C65.58 39.0572 65.1291 38.9376 64.6184 38.9376C64.1078 38.9376 63.6569 39.0572 63.2657 39.2962C62.8746 39.5352 62.5649 39.8666 62.3368 40.2903C62.1195 40.7032 62.0108 41.1921 62.0108 41.7571ZM71.9858 45.75H70.4538V37.7805H71.8391L72.0021 39.0028C72.252 38.5465 72.6105 38.1934 73.0777 37.9435C73.5558 37.6827 74.0773 37.5524 74.6423 37.5524C75.6853 37.5524 76.4567 37.8511 76.9565 38.4487C77.4563 39.0463 77.7062 39.8557 77.7062 40.877V45.75H76.1742V41.2193C76.1742 40.4153 76.0004 39.8394 75.6527 39.4918C75.305 39.1332 74.8378 38.9539 74.2511 38.9539C73.534 38.9539 72.9745 39.1875 72.5725 39.6547C72.1813 40.1219 71.9858 40.7467 71.9858 41.5289V45.75Z" fill="#333333"/>
<defs>
<filter id="filter0_d_1418_3077" x="0.299561" y="0.00488281" width="28.8656" height="32.7617" filterUnits="userSpaceOnUse" color-interpolation-filters="sRGB">
<feFlood flood-opacity="0" result="BackgroundImageFix"/>
<feColorMatrix in="SourceAlpha" type="matrix" values="0 0 0 0 0 0 0 0 0 0 0 0 0 0 0 0 0 0 127 0" result="hardAlpha"/>
<feOffset dy="1"/>
<feGaussianBlur stdDeviation="2"/>
<feComposite in2="hardAlpha" operator="out"/>
<feColorMatrix type="matrix" values="0 0 0 0 0 0 0 0 0 0 0 0 0 0 0 0 0 0 0.1 0"/>
<feBlend mode="normal" in2="BackgroundImageFix" result="effect1_dropShadow_1418_3077"/>
<feBlend mode="normal" in="SourceGraphic" in2="effect1_dropShadow_1418_3077" result="shape"/>
</filter>
<filter id="filter1_d_1418_3077" x="25" y="25" width="69" height="33" filterUnits="userSpaceOnUse" color-interpolation-filters="sRGB">
<feFlood flood-opacity="0" result="BackgroundImageFix"/>
<feColorMatrix in="SourceAlpha" type="matrix" values="0 0 0 0 0 0 0 0 0 0 0 0 0 0 0 0 0 0 127 0" result="hardAlpha"/>
<feOffset dy="1"/>
<feGaussianBlur stdDeviation="2"/>
<feComposite in2="hardAlpha" operator="out"/>
<feColorMatrix type="matrix" values="0 0 0 0 0 0 0 0 0 0 0 0 0 0 0 0 0 0 0.16 0"/>
<feBlend mode="normal" in2="BackgroundImageFix" result="effect1_dropShadow_1418_3077"/>
<feBlend mode="normal" in="SourceGraphic" in2="effect1_dropShadow_1418_3077" result="shape"/>
</filter>
</defs>
</svg>
