<svg width="51" height="51" viewBox="0 0 51 51" fill="none" xmlns="http://www.w3.org/2000/svg">
<mask id="mask0_1077_1238" style="mask-type:luminance" maskUnits="userSpaceOnUse" x="4" y="3" width="42" height="42">
<path d="M46 3H4V45H46V3Z" fill="white"/>
</mask>
<g mask="url(#mask0_1077_1238)">
<path fill-rule="evenodd" clip-rule="evenodd" d="M25 3C13.3975 3 4 12.3975 4 24C4 33.2925 10.0113 41.1413 18.3588 43.9238C19.4088 44.1075 19.8025 43.4775 19.8025 42.9263C19.8025 42.4275 19.7763 40.7738 19.7763 39.015C14.5 39.9863 13.135 37.7288 12.715 36.5475C12.4787 35.9438 11.455 34.08 10.5625 33.5813C9.8275 33.1875 8.7775 32.2163 10.5362 32.19C12.19 32.1638 13.3713 33.7125 13.765 34.3425C15.655 37.5188 18.6738 36.6263 19.8813 36.075C20.065 34.71 20.6163 33.7913 21.22 33.2663C16.5475 32.7413 11.665 30.93 11.665 22.8975C11.665 20.6138 12.4788 18.7238 13.8175 17.2538C13.6075 16.7288 12.8725 14.5763 14.0275 11.6888C14.0275 11.6888 15.7863 11.1375 19.8025 13.8413C21.4825 13.3688 23.2675 13.1325 25.0525 13.1325C26.8375 13.1325 28.6225 13.3688 30.3025 13.8413C34.3188 11.1113 36.0775 11.6888 36.0775 11.6888C37.2325 14.5763 36.4975 16.7288 36.2875 17.2538C37.6263 18.7238 38.44 20.5875 38.44 22.8975C38.44 30.9563 33.5313 32.7413 28.8588 33.2663C29.62 33.9225 30.2763 35.1825 30.2763 37.1513C30.2763 39.96 30.25 42.2175 30.25 42.9263C30.25 43.4775 30.6438 44.1338 31.6938 43.9238C39.9888 41.1413 46 33.2663 46 24C46 12.3975 36.6025 3 25 3Z" fill="white"/>
</g>
</svg>
