<svg width="51" height="51" viewBox="0 0 51 51" fill="none" xmlns="http://www.w3.org/2000/svg">
<path fill-rule="evenodd" clip-rule="evenodd" d="M15.3134 41V17.3843H7.46394V41H15.3134ZM11.3887 14.1601C14.1258 14.1601 15.8296 12.3466 15.8296 10.0803C15.7785 7.76313 14.1258 6 11.4406 6C8.75562 6 7 7.76313 7 10.0803C7 12.3466 8.70329 14.1601 11.3376 14.1601H11.3887Z" fill="white"/>
<path fill-rule="evenodd" clip-rule="evenodd" d="M19.6567 40.9999H27.506V27.8119C27.506 27.1061 27.5571 26.401 27.7643 25.8965C28.3318 24.4862 29.6233 23.0258 31.7918 23.0258C34.632 23.0258 35.7683 25.1914 35.7683 28.3661V40.9999H43.6169V27.4591C43.6169 20.2053 39.7445 16.8301 34.5802 16.8301C30.3457 16.8301 28.4867 19.197 27.4539 20.8091H27.5062V17.3841H19.6569C19.76 19.6002 19.6567 40.9999 19.6567 40.9999Z" fill="white"/>
</svg>
