<svg width="51" height="51" viewBox="0 0 51 51" fill="none" xmlns="http://www.w3.org/2000/svg">
<path d="M41.7767 1.93701H20.2168C19.2764 1.93701 18.3746 2.31057 17.7097 2.97549L9.97549 10.7096C9.31057 11.3745 8.93701 12.2764 8.93701 13.2167V47.8767C8.93701 49.5614 10.3154 50.9399 12.0002 50.9399H41.7776C43.4618 50.9399 44.8398 49.5619 44.8398 47.8777V5.0001C44.8398 3.31539 43.4614 1.93701 41.7767 1.93701Z" fill="#333333"/>
<path d="M39.8396 0H18.2798C17.3394 0 16.4376 0.37356 15.7727 1.03848L8.03848 8.77267C7.37356 9.43758 7 10.3395 7 11.2798V45.9398C7 47.6245 8.37838 49.003 10.0632 49.003H39.8406C41.5248 49.003 42.9028 47.625 42.9028 45.9408V3.06319C42.9028 1.37838 41.5243 0 39.8396 0Z" fill="url(#paint0_linear_1077_1237)"/>
<path d="M14.0402 32.2703C15.1063 32.2703 15.9705 31.4061 15.9705 30.34C15.9705 29.2739 15.1063 28.4097 14.0402 28.4097C12.9741 28.4097 12.1099 29.2739 12.1099 30.34C12.1099 31.4061 12.9741 32.2703 14.0402 32.2703Z" fill="#333333"/>
<path d="M14.0402 37.9886C15.1063 37.9886 15.9705 37.1243 15.9705 36.0583C15.9705 34.9922 15.1063 34.1279 14.0402 34.1279C12.9741 34.1279 12.1099 34.9922 12.1099 36.0583C12.1099 37.1243 12.9741 37.9886 14.0402 37.9886Z" fill="#333333"/>
<path d="M14.0402 43.7059C15.1063 43.7059 15.9705 42.8416 15.9705 41.7755C15.9705 40.7095 15.1063 39.8452 14.0402 39.8452C12.9741 39.8452 12.1099 40.7095 12.1099 41.7755C12.1099 42.8416 12.9741 43.7059 14.0402 43.7059Z" fill="#333333"/>
<path d="M42.9029 45.9407V3.06319C42.9029 1.37838 41.5245 0 39.8397 0H18.2799C17.3395 0 16.4377 0.37356 15.7728 1.03848L8.03859 8.77267C7.54527 9.26599 7.21277 9.88985 7.07373 10.563L42.873 46.3622C42.8921 46.2243 42.9029 46.0837 42.9029 45.9407Z" fill="url(#paint1_linear_1077_1237)"/>
<path d="M7.10509 10.4195C7.09371 10.4687 7.08332 10.5166 7.07373 10.5629H16.4562C17.1205 10.5629 17.6591 10.0243 17.6591 9.36001V0.0556641C17.5857 0.0687487 17.5086 0.0840307 17.4292 0.10161C16.7298 0.256328 16.0921 0.615904 15.5856 1.12241L8.12419 8.58382C7.61979 9.08833 7.2655 9.72428 7.10509 10.4195Z" fill="url(#paint2_linear_1077_1237)"/>
<path d="M7 42.9688V45.9396C7 47.6244 8.37838 49.0028 10.0632 49.0028H39.8406C41.5248 49.0028 42.9028 47.6249 42.9028 45.9406V42.9689H7V42.9688Z" fill="url(#paint3_linear_1077_1237)"/>
<path d="M24.9511 24.7118C29.7385 24.7118 33.6195 20.8308 33.6195 16.0434C33.6195 11.256 29.7385 7.375 24.9511 7.375C20.1637 7.375 16.2827 11.256 16.2827 16.0434C16.2827 20.8308 20.1637 24.7118 24.9511 24.7118Z" fill="#333333" style="mix-blend-mode:multiply"/>
<path d="M24.9374 17.7117C27.1465 17.7117 28.9373 15.9209 28.9373 13.7118C28.9373 11.5027 27.1465 9.71191 24.9374 9.71191C22.7283 9.71191 20.9375 11.5027 20.9375 13.7118C20.9375 15.9209 22.7283 17.7117 24.9374 17.7117Z" fill="url(#paint4_linear_1077_1237)"/>
<path d="M29.9735 20.4462C29.9488 20.4184 29.9238 20.3908 29.8988 20.3634C28.6683 19.0214 26.9016 18.1807 24.937 18.1807C22.9512 18.1807 21.1661 19.0408 19.9345 20.4089C19.9324 20.4112 19.9303 20.4135 19.9283 20.4158C19.6516 20.7229 19.849 21.2143 20.2602 21.2552C21.4857 21.3774 23.2153 21.4532 25.1329 21.4532C26.8652 21.4532 28.4442 21.3913 29.6368 21.2891C30.0531 21.2534 30.251 20.7586 29.9735 20.4462Z" fill="url(#paint5_linear_1077_1237)"/>
<rect x="17.7295" y="28.2603" width="9" height="3.78" rx="1.89" fill="#333333"/>
<rect x="28.8896" y="28.2603" width="9" height="3.78" rx="1.89" fill="#333333"/>
<rect x="17.7295" y="34.02" width="12.42" height="3.78" rx="1.89" fill="#333333"/>
<rect x="17.7295" y="39.7798" width="20.16" height="3.78" rx="1.89" fill="#333333"/>
<rect x="31.7695" y="34.02" width="6.12" height="3.78" rx="1.89" fill="#333333"/>
<defs>
<linearGradient id="paint0_linear_1077_1237" x1="15.7883" y1="11.94" x2="44.8057" y2="51.7189" gradientUnits="userSpaceOnUse">
<stop stop-color="#EDF5FF"/>
<stop offset="1" stop-color="#C7E9FF"/>
</linearGradient>
<linearGradient id="paint1_linear_1077_1237" x1="30.0707" y1="11.2637" x2="7.04117" y2="-11.7659" gradientUnits="userSpaceOnUse">
<stop stop-color="#7ACBFF" stop-opacity="0"/>
<stop offset="1" stop-color="#505050"/>
</linearGradient>
<linearGradient id="paint2_linear_1077_1237" x1="11.6678" y1="4.6106" x2="18.7024" y2="11.6452" gradientUnits="userSpaceOnUse">
<stop stop-color="#EDF5FF"/>
<stop offset="1" stop-color="#C7E9FF"/>
</linearGradient>
<linearGradient id="paint3_linear_1077_1237" x1="24.9514" y1="45.6448" x2="24.9514" y2="52.7196" gradientUnits="userSpaceOnUse">
<stop stop-color="#7AAEFF" stop-opacity="0"/>
<stop offset="1" stop-color="#333333"/>
</linearGradient>
<linearGradient id="paint4_linear_1077_1237" x1="22.9233" y1="13.7118" x2="26.4181" y2="13.7118" gradientUnits="userSpaceOnUse">
<stop stop-color="#EDF5FF"/>
<stop offset="1" stop-color="#C7E9FF"/>
</linearGradient>
<linearGradient id="paint5_linear_1077_1237" x1="22.9233" y1="19.8169" x2="26.4182" y2="19.8169" gradientUnits="userSpaceOnUse">
<stop stop-color="#EDF5FF"/>
<stop offset="1" stop-color="#C7E9FF"/>
</linearGradient>
</defs>
</svg>
