<svg width="51" height="51" viewBox="0 0 51 51" fill="none" xmlns="http://www.w3.org/2000/svg">
<mask id="mask0_1077_1240" style="mask-type:luminance" maskUnits="userSpaceOnUse" x="6" y="10" width="39" height="32">
<path d="M44.8877 10H6V41.6032H44.8877V10Z" fill="white"/>
</mask>
<g mask="url(#mask0_1077_1240)">
<path d="M44.8877 13.7409C43.4572 14.3756 41.9195 14.8043 40.3057 14.9972C41.9528 14.0099 43.218 12.4464 43.8138 10.5832C42.2718 11.4978 40.5644 12.1616 38.747 12.5192C37.2918 10.9687 35.2185 10 32.9236 10C28.5176 10 24.9452 13.5719 24.9452 17.9779C24.9452 18.6032 25.0158 19.2123 25.1519 19.7961C18.5211 19.4635 12.6423 16.2871 8.7073 11.4602C8.02056 12.6385 7.627 14.0089 7.627 15.471C7.627 18.2391 9.03552 20.6811 11.1763 22.1118C9.86848 22.0703 8.63828 21.7114 7.56265 21.1139C7.56174 21.1472 7.56174 21.1806 7.56174 21.2143C7.56174 25.0797 10.3119 28.3042 13.9617 29.0375C13.2923 29.2198 12.5874 29.3173 11.8597 29.3173C11.3458 29.3173 10.8461 29.2671 10.3587 29.174C11.374 32.3437 14.3205 34.6504 17.8118 34.7146C15.0813 36.8546 11.6413 38.13 7.90317 38.13C7.2592 38.13 6.62415 38.0922 6 38.0184C9.5308 40.2824 13.7244 41.6032 18.2301 41.6032C32.905 41.6032 40.9302 29.4462 40.9302 18.9029C40.9302 18.5571 40.9222 18.2131 40.9071 17.8707C42.4657 16.746 43.8181 15.3411 44.8877 13.7409Z" fill="white"/>
</g>
</svg>
